<svg width="68" height="61" viewBox="0 0 68 61" fill="none" xmlns="http://www.w3.org/2000/svg">
<path d="M22.9375 31.3125C22.8958 31.1875 23.0208 30.875 23.3125 30.375C23.6042 29.8333 23.9167 29.1875 24.25 28.4375C24.625 27.6458 24.9792 26.7708 25.3125 25.8125C25.6875 24.8125 25.9375 23.7917 26.0625 22.75C26.2292 21.7083 26.2292 20.6667 26.0625 19.625C25.8958 18.5833 25.4583 17.5833 24.75 16.625C24.3333 16.125 23.7083 15.8542 22.875 15.8125C22.0833 15.7292 21.1667 15.8542 20.125 16.1875C19.125 16.4792 18.0625 16.9583 16.9375 17.625C15.8542 18.25 14.8542 19 13.9375 19.875C13.0208 20.7083 12.2292 21.6458 11.5625 22.6875C10.9375 23.7292 10.5833 24.7917 10.5 25.875C10.4167 26.75 10.4375 27.5625 10.5625 28.3125C10.7292 29.0625 10.9375 29.75 11.1875 30.375C11.4375 31 11.7083 31.5833 12 32.125C12.2917 32.6667 12.5625 33.1458 12.8125 33.5625C13.1458 34.1458 13.6667 34.7917 14.375 35.5C15.0833 36.2083 15.8542 37.0208 16.6875 37.9375C17.5208 38.8125 18.3542 39.8125 19.1875 40.9375C20.0208 42.0625 20.75 43.3333 21.375 44.75C22 46.1667 22.4375 47.75 22.6875 49.5C22.9375 51.25 22.9167 53.1875 22.625 55.3125C22.1667 58.3958 21.4375 60.9583 20.4375 63C19.4375 65.0833 18.3333 66.75 17.125 68C15.9583 69.25 14.7708 70.1458 13.5625 70.6875C12.3542 71.2708 11.3542 71.6458 10.5625 71.8125C9.9375 71.9375 9.1875 72.0417 8.3125 72.125C7.47917 72.25 6.58333 72.2292 5.625 72.0625C4.70833 71.9375 3.77083 71.6458 2.8125 71.1875C1.85417 70.7708 1 70.1042 0.25 69.1875C-0.625 68.1458 -1.3125 67.0208 -1.8125 65.8125C-2.27083 64.7708 -2.60417 63.5625 -2.8125 62.1875C-3.0625 60.8542 -2.95833 59.4583 -2.5 58C-2.16667 57.625 -1.8125 57.2917 -1.4375 57C-1.0625 56.7083 -0.6875 56.4583 -0.3125 56.25C0.104167 56 0.541667 55.7708 1 55.5625C1.54167 55.3958 2.08333 55.25 2.625 55.125C3.08333 55.0417 3.5625 55 4.0625 55C4.60417 54.9583 5.10417 55.0208 5.5625 55.1875C4.9375 55.8958 4.5 56.5625 4.25 57.1875C4.08333 57.5208 3.95833 57.8125 3.875 58.0625C3.70833 58.8542 3.64583 59.7917 3.6875 60.875C3.77083 62 4 63.0625 4.375 64.0625C4.79167 65.1042 5.375 65.9792 6.125 66.6875C6.875 67.4375 7.875 67.8333 9.125 67.875C12.1667 67.9583 14.75 65.5833 16.875 60.75C17.5833 59.25 17.9375 57.7292 17.9375 56.1875C17.9792 54.6458 17.7917 53.1667 17.375 51.75C17 50.3333 16.4792 49.0208 15.8125 47.8125C15.1875 46.5625 14.5417 45.5 13.875 44.625C13.2083 43.75 12.3958 42.8125 11.4375 41.8125C10.5208 40.7708 9.60417 39.6458 8.6875 38.4375C7.77083 37.2292 6.9375 35.9167 6.1875 34.5C5.47917 33.0833 5 31.5417 4.75 29.875C4.41667 27.5417 4.625 25.4167 5.375 23.5C6.16667 21.5417 7.20833 19.8333 8.5 18.375C9.83333 16.9167 11.2708 15.7292 12.8125 14.8125C14.3958 13.8958 15.7917 13.3125 17 13.0625C23.7083 11.7292 28.1042 12.8542 30.1875 16.4375C31.0625 17.8125 31.5417 19.2708 31.625 20.8125C31.7083 22.3542 31.6042 23.7917 31.3125 25.125C31.0625 26.4167 30.7292 27.5208 30.3125 28.4375C29.9375 29.3125 29.6875 29.7917 29.5625 29.875C29.3125 30.125 28.9167 30.3958 28.375 30.6875C27.8333 30.9792 26.9583 31.25 25.75 31.5C25.4167 31.5833 25.0833 31.625 24.75 31.625C24.4583 31.625 24.1458 31.6042 23.8125 31.5625C23.4792 31.5208 23.1875 31.4375 22.9375 31.3125Z" transform="translate(3 -12)" fill="#4F4F4F"/>
<path d="M34.1875 20.875C33.6875 21.0417 33.3125 21.0625 33.0625 20.9375C32.8125 20.8125 32.625 20.6042 32.5 20.3125C32.375 20.0208 32.3125 19.7083 32.3125 19.375C32.3125 19 32.3333 18.6458 32.375 18.3125C32.4167 18.0208 32.4792 17.6875 32.5625 17.3125C32.6875 16.9375 32.8333 16.5833 33 16.25C33.1667 15.9167 33.3542 15.6458 33.5625 15.4375C33.8125 15.1875 34.125 15.0208 34.5 14.9375C36.4167 14.6042 38.2708 14.3542 40.0625 14.1875C41.8958 14.0208 43.5417 13.8958 45 13.8125C46.6667 13.6875 48.2708 13.625 49.8125 13.625C50.1458 13.625 50.4792 13.6458 50.8125 13.6875C51.1458 13.6875 51.4792 13.6875 51.8125 13.6875C52.1875 13.6042 52.4792 13.5833 52.6875 13.625C52.9375 13.625 53.1458 13.6458 53.3125 13.6875C54.5208 13.7292 55.7708 13.7917 57.0625 13.875C58.1458 13.9583 59.3542 14.0625 60.6875 14.1875C62.0625 14.2708 63.4167 14.3958 64.75 14.5625C64.875 14.8958 64.8958 15.3125 64.8125 15.8125C64.7708 16.0625 64.7292 16.3125 64.6875 16.5625C64.6458 16.8125 64.5417 17.0417 64.375 17.25C64.25 17.4583 64.0833 17.6667 63.875 17.875C63.7083 18.0417 63.5 18.1875 63.25 18.3125C61.8333 18.2708 60.4583 18.25 59.125 18.25C57.8333 18.2083 56.6875 18.1875 55.6875 18.1875H52.3125C51.7708 20.1042 51.1042 22.4792 50.3125 25.3125C49.5208 28.1042 48.7083 31.0625 47.875 34.1875C47.0833 37.2708 46.3125 40.3542 45.5625 43.4375C44.8542 46.4792 44.2917 49.2292 43.875 51.6875C43.4583 54.0625 43.0417 56.3958 42.625 58.6875C42.4583 59.6458 42.2708 60.6458 42.0625 61.6875C41.8958 62.7292 41.7292 63.75 41.5625 64.75C41.4375 65.75 41.3125 66.7083 41.1875 67.625C41.0625 68.5417 40.9583 69.375 40.875 70.125C40.2083 70.4583 39.5833 70.7083 39 70.875C38.4167 71.0833 37.8958 71.2292 37.4375 71.3125C36.8958 71.4375 36.3958 71.5 35.9375 71.5C34.9375 71.5 34.3125 71.375 34.0625 71.125C33.8542 70.9167 33.8333 70.4792 34 69.8125C34.125 69.2292 34.5 67.6458 35.125 65.0625C35.375 63.9792 35.6875 62.6042 36.0625 60.9375C36.4792 59.3125 36.9583 57.3333 37.5 55C38.0417 52.625 38.6875 49.875 39.4375 46.75C40.1875 43.5833 41.0417 39.9583 42 35.875L46.1875 18.5C44.9375 18.6667 43.7083 18.8542 42.5 19.0625C41.2917 19.2708 40.1458 19.5 39.0625 19.75C38.0208 19.9583 37.0625 20.1667 36.1875 20.375C35.3542 20.5833 34.6875 20.75 34.1875 20.875Z" transform="translate(3 -12)" fill="#60B134"/>
</svg>
